<?xml version="1.0" encoding="UTF-8"?>
<svg version="1.1" xmlns="http://www.w3.org/2000/svg" width="57" height="57">
<path d="M0 0 C1.2148407 -0.00642769 1.2148407 -0.00642769 2.45422363 -0.01298523 C4.16559922 -0.01872513 5.8769992 -0.01923129 7.58837891 -0.01489258 C10.20908084 -0.01173042 12.82865622 -0.03520247 15.44921875 -0.06054688 C17.11197774 -0.06281966 18.77473977 -0.06352346 20.4375 -0.0625 C21.22193481 -0.07170975 22.00636963 -0.08091949 22.8145752 -0.09040833 C28.236195 -0.04420219 28.236195 -0.04420219 30.67382812 1.69848633 C33.03840357 5.32435284 32.91368144 8.54602514 32.95703125 12.7578125 C32.965103 13.49778976 32.97317474 14.23776703 32.98149109 15.00016785 C32.99532883 16.5678778 33.00605238 18.13561784 33.01391602 19.70336914 C33.03111022 22.09384757 33.07499349 24.48293584 33.11914062 26.87304688 C33.12926956 28.39712526 33.13778503 29.92121539 33.14453125 31.4453125 C33.16203934 32.15694046 33.17954742 32.86856842 33.19758606 33.60176086 C33.18211371 37.16564696 32.78447832 39.19294197 30.91479492 42.26049805 C28.71875 44.30078125 28.71875 44.30078125 25.15625 44.80078125 C21.71875 44.30078125 21.71875 44.30078125 19.84375 42.98828125 C17.56122995 39.56450118 17.45725253 36.11231491 17.15625 32.11328125 C17.07246094 31.02660156 16.98867188 29.93992187 16.90234375 28.8203125 C16.84175781 27.98886719 16.78117187 27.15742188 16.71875 26.30078125 C15.84138184 27.2043335 14.96401367 28.10788574 14.06005859 29.03881836 C10.79650928 32.39297941 7.5163482 35.73047402 4.23095703 39.06323242 C2.81231711 40.50699105 1.39820035 41.95520885 -0.01123047 43.40795898 C-2.03997112 45.49746177 -4.08452891 47.57029813 -6.1328125 49.640625 C-7.070681 50.61720314 -7.070681 50.61720314 -8.02749634 51.61351013 C-11.59690792 55.18516776 -13.97385684 57.2359398 -19.28125 57.30078125 C-22.03079328 56.3347255 -22.97132757 55.92062611 -24.28125 53.30078125 C-24.80318672 49.91107475 -25.02600885 47.42430156 -23.07397461 44.47952271 C-21.29324352 42.50240306 -19.43229326 40.66527671 -17.5 38.8359375 C-16.46788391 37.81867836 -16.46788391 37.81867836 -15.41491699 36.78086853 C-13.21960792 34.62465472 -11.00120538 32.49408276 -8.78125 30.36328125 C-7.28616952 28.90332011 -5.79265994 27.44174841 -4.30078125 25.97851562 C-0.64555072 22.40034665 3.03058258 18.84497852 6.71875 15.30078125 C5.16414063 15.27951172 5.16414063 15.27951172 3.578125 15.2578125 C2.20828943 15.21090032 0.83849913 15.16265298 -0.53125 15.11328125 C-1.55412109 15.10458008 -1.55412109 15.10458008 -2.59765625 15.09570312 C-6.33277188 14.93251846 -8.00293892 14.56030524 -10.76953125 11.98046875 C-12.28125 9.30078125 -12.28125 9.30078125 -12.21875 5.61328125 C-10.39979968 -0.81367655 -5.69740425 -0.00661962 0 0 Z " fill="#000000" transform="translate(24.28125,-0.30078125)"/>
</svg>
