<svg width="41" height="52" viewBox="0 0 41 52" fill="none" xmlns="http://www.w3.org/2000/svg">
<path d="M32.0689 0H0V52H40.7345V8.66558L32.0689 0Z" fill="#E8E8E8"/>
<path d="M33.8182 25.7168C33.1934 24.6031 31.0344 24.2533 30.044 24.0958C29.2632 23.9716 28.4662 23.9346 27.6766 23.9353C27.0566 23.9312 26.4457 23.9617 25.8426 23.996C25.6204 24.0109 25.4003 24.0301 25.1804 24.0492C24.9551 23.8159 24.7372 23.5749 24.5265 23.3285C23.1852 21.7408 22.1023 19.9403 21.2199 18.0693C21.4542 17.1652 21.6416 16.2218 21.7548 15.2419C21.9615 13.4536 22.0325 11.4155 21.3624 9.71052C21.1311 9.12206 20.5141 8.40566 19.8024 8.7624C18.9841 9.17266 18.7539 10.335 18.6872 11.1589C18.6335 11.8249 18.6711 12.4926 18.7829 13.1474C18.8968 13.8067 19.0801 14.4327 19.2798 15.0579C19.466 15.6311 19.6713 16.1998 19.8952 16.7632C19.7531 17.2067 19.6024 17.6425 19.4441 18.0672C19.075 19.035 18.6759 19.9545 18.292 20.839C18.0897 21.2775 17.8916 21.7068 17.6978 22.1265C17.0844 23.4737 16.4186 24.7963 15.6714 26.0747C13.9283 26.6896 12.3641 27.4024 11.0651 28.24C10.3682 28.6902 9.75269 29.1792 9.24005 29.7155C8.75604 30.2218 8.26415 30.8789 8.2211 31.6063C8.19692 32.0169 8.35951 32.4153 8.69584 32.6588C9.15841 33.0044 9.77139 32.9814 10.308 32.8689C12.066 32.5002 13.416 30.989 14.5656 29.7154C15.3575 28.8381 16.2588 27.7241 17.2016 26.3769C17.2036 26.3738 17.2057 26.3707 17.2079 26.3676C18.8249 25.8663 20.5848 25.443 22.4525 25.1319C23.3058 24.9904 24.1817 24.8746 25.0751 24.7933C25.7034 25.3818 26.3822 25.9176 27.1228 26.3651C27.6996 26.7199 28.3131 27.0196 28.9552 27.243C29.6045 27.4552 30.2578 27.6284 30.9324 27.738C31.273 27.7867 31.6213 27.8088 31.9772 27.7955C32.7715 27.7655 33.9115 27.4609 33.9863 26.4971C34.0093 26.2021 33.9457 25.9435 33.8182 25.7168ZM14.803 27.485C14.431 28.0613 14.0722 28.5796 13.7341 29.0357C12.9063 30.1621 11.9607 31.5001 10.5917 32.0004C10.3317 32.0954 9.98938 32.1935 9.62852 32.1723C9.30711 32.1534 8.99016 32.0115 9.00473 31.6466C9.01194 31.4555 9.10541 31.2118 9.2488 30.9724C9.40573 30.7098 9.60005 30.469 9.81049 30.2476C10.2614 29.7738 10.8315 29.3147 11.4874 28.8895C12.4933 28.2369 13.6942 27.6495 15.0328 27.1254C14.9558 27.2471 14.879 27.3682 14.803 27.485ZM19.4719 13.0335C19.3686 12.4308 19.353 11.8198 19.4165 11.2322C19.448 10.9384 19.5079 10.6516 19.5945 10.3828C19.6679 10.1547 19.8264 9.598 20.0792 9.52648C20.496 9.40849 20.6241 10.3033 20.6712 10.5564C20.9398 11.9964 20.7031 13.5978 20.3809 15.0104C20.3296 15.235 20.2725 15.4561 20.214 15.6763C20.1142 15.4018 20.019 15.1263 19.9313 14.8495C19.7427 14.2449 19.5701 13.6333 19.4719 13.0335ZM22.3332 24.4013C20.7673 24.6551 19.2777 24.9877 17.8775 25.3803C18.0461 25.3331 18.8165 23.873 18.9884 23.57C19.7981 22.1438 20.4605 20.6471 20.9364 19.0769C21.7768 20.739 22.7968 22.3291 24.0498 23.7444C24.1653 23.8728 24.2826 23.9998 24.4019 24.1251C23.6998 24.2008 23.0088 24.2929 22.3332 24.4013ZM32.9229 26.4069C32.8657 26.7165 32.2045 26.8935 31.8959 26.9422C30.9842 27.0856 30.0196 26.9708 29.147 26.6777C28.5482 26.4767 27.9707 26.203 27.4221 25.8737C26.8767 25.5442 26.3664 25.1566 25.8895 24.7292C26.4776 24.6939 27.0729 24.6707 27.6711 24.682C28.2693 24.688 28.8722 24.7182 29.4677 24.7959C30.5844 24.9204 31.8357 25.3038 32.7147 26.0284C32.8878 26.1713 32.943 26.2975 32.9229 26.4069Z" fill="#FB3449"/>
<path d="M33.41 4.33288H0V0H32.0689L33.41 4.33288Z" fill="#FB3449"/>
<path d="M16.1203 41.3594C16.1203 42.2789 15.8493 42.989 15.307 43.4898C14.7646 43.9908 13.9946 44.2412 12.9964 44.2412H12.3716V46.9711H10.1484V38.7422H12.9965C14.0359 38.7422 14.8164 38.9693 15.338 39.4233C15.8596 39.8772 16.1203 40.5226 16.1203 41.3594ZM12.3717 42.4288H12.777C13.1109 42.4288 13.3764 42.3352 13.5735 42.1474C13.7706 41.9597 13.869 41.7007 13.869 41.3706C13.869 40.8152 13.5613 40.5376 12.9459 40.5376H12.3717V42.4288Z" fill="#A4A9AD"/>
<path d="M24.4187 42.6821C24.4187 44.0554 24.0405 45.1136 23.2845 45.8566C22.5285 46.5996 21.4655 46.9711 20.096 46.9711H17.4336V38.7422H20.2817C21.6025 38.7422 22.6221 39.0799 23.3408 39.7553C24.0592 40.4307 24.4187 41.4064 24.4187 42.6821ZM22.111 42.761C22.111 42.0067 21.9618 41.4478 21.6636 41.0837C21.3653 40.7197 20.9122 40.5377 20.3042 40.5377H19.6571V45.1474H20.1524C20.828 45.1474 21.3231 44.9514 21.6384 44.5591C21.9534 44.1672 22.111 43.5678 22.111 42.761Z" fill="#A4A9AD"/>
<path d="M28.084 46.9711H25.8945V38.7422H30.7577V40.5264H28.084V42.0968H30.5493V43.881H28.084V46.9711Z" fill="#A4A9AD"/>
<path d="M32.0684 8.66558H40.7339L32.0684 0V8.66558Z" fill="#D1D3D3"/>
</svg>
