<svg width="29" height="29" viewBox="0 0 29 29" fill="none" xmlns="http://www.w3.org/2000/svg">
<path d="M7.91565 6.30469C7.50361 6.30469 7.09071 6.46212 6.77654 6.77669C6.1474 7.40583 6.1474 8.42577 6.77654 9.0549L12.4847 14.763L6.77654 20.4711C6.1474 21.1003 6.1474 22.1202 6.77654 22.7493C7.09071 23.0635 7.50361 23.2214 7.91565 23.2214C8.32769 23.2214 8.74059 23.0639 9.05475 22.7493L14.7629 17.0412L20.471 22.7493C21.0993 23.3785 22.1205 23.3785 22.7492 22.7493C23.3787 22.1198 23.3787 21.1007 22.7492 20.4711L17.0411 14.763L22.7492 9.0549C23.3783 8.42577 23.3783 7.40583 22.7492 6.77669C22.1209 6.14796 21.0993 6.14755 20.471 6.77669L14.7629 12.4848L9.05475 6.77669C8.74059 6.46253 8.32769 6.30469 7.91565 6.30469Z" fill="black"/>
</svg>
