
<svg width="50" height="50" viewBox="0 0 50 50" fill="none" xmlns="http://www.w3.org/2000/svg">
<path d="M21.0059 4.41992C22.913 3.62996 25.0115 3.42251 27.0361 3.8252C29.0608 4.22793 30.9211 5.22193 32.3809 6.68164C33.8406 8.14135 34.8346 10.0017 35.2373 12.0264C35.64 14.051 35.4325 16.1495 34.6426 18.0566C33.8526 19.9638 32.5153 21.5943 30.7988 22.7412C29.0824 23.8881 27.0643 24.5 25 24.5C22.2318 24.5 19.5766 23.4008 17.6191 21.4434C15.6617 19.4859 14.5625 16.8307 14.5625 14.0625C14.5625 11.9982 15.1744 9.98009 16.3213 8.26367C17.4682 6.54725 19.0987 5.20991 21.0059 4.41992ZM25 5.75C22.7954 5.75 20.681 6.62568 19.1221 8.18457C17.5632 9.74347 16.6875 11.8579 16.6875 14.0625C16.6875 15.7066 17.1755 17.3137 18.0889 18.6807C19.0022 20.0476 20.3005 21.1131 21.8193 21.7422C23.3382 22.3712 25.0097 22.5356 26.6221 22.2148C28.2344 21.894 29.7155 21.1028 30.8779 19.9404C32.0403 18.778 32.8315 17.2969 33.1523 15.6846C33.4731 14.0722 33.3087 12.4007 32.6797 10.8818C32.0506 9.363 30.9851 8.06475 29.6182 7.15137C28.2512 6.23798 26.6441 5.75 25 5.75Z" fill="white" stroke="white"/>
<path d="M26.5625 28.125H23.4375C18.8791 28.125 14.5074 29.9358 11.2841 33.1591C8.06082 36.3824 6.25 40.7541 6.25 45.3125C6.25 45.7269 6.41462 46.1243 6.70765 46.4174C7.00067 46.7104 7.3981 46.875 7.8125 46.875H42.1875C42.6019 46.875 42.9993 46.7104 43.2924 46.4174C43.5854 46.1243 43.75 45.7269 43.75 45.3125C43.75 40.7541 41.9392 36.3824 38.7159 33.1591C35.4926 29.9358 31.1209 28.125 26.5625 28.125ZM9.46875 43.75C9.85296 40.3135 11.4899 37.139 14.0667 34.8332C16.6435 32.5273 19.9796 31.2516 23.4375 31.25H26.5625C30.0204 31.2516 33.3565 32.5273 35.9333 34.8332C38.5101 37.139 40.147 40.3135 40.5312 43.75H9.46875Z" fill="white"/>
</svg>
