<svg width="40" height="40" viewBox="0 0 40 40" fill="none" xmlns="http://www.w3.org/2000/svg">
<path d="M15.3622 11.7654C14.8598 12.4576 14.7866 13.324 15.1708 14.0598C15.4664 14.6291 16.0061 15.0382 16.6439 15.175C16.8025 15.2093 17.3096 15.2186 19.1949 15.2186L21.5499 15.2217L16.4386 20.3424L11.3241 25.463L11.2308 25.6279C10.7611 26.4398 10.8279 27.3902 11.3988 28.1042C12.0257 28.8866 13.1129 29.1215 14.0276 28.6735C14.3744 28.504 14.0882 28.7808 19.5604 23.3087L24.6002 18.2689L24.6017 20.6223C24.6033 22.086 24.6157 23.038 24.6359 23.1329C24.8428 24.1673 25.7139 24.889 26.7545 24.8875C27.3347 24.889 27.8418 24.6775 28.2602 24.2622C28.5247 24.0008 28.6755 23.7597 28.7922 23.4098C28.9213 23.0162 28.9182 23.3304 28.8995 17.2205L28.8855 12.7236L28.8186 12.495C28.5573 11.6239 27.8418 11.0235 26.9489 10.9301C26.8385 10.9192 24.5271 10.9099 21.8112 10.913C17.5554 10.9161 16.843 10.9224 16.6517 10.9612C16.2488 11.0468 15.9237 11.2132 15.6188 11.4963C15.5208 11.585 15.4042 11.7079 15.3622 11.7654Z" fill="black" fill-opacity="0.5"/>
</svg>
