<svg width="45" height="45" viewBox="0 0 45 45" fill="none" xmlns="http://www.w3.org/2000/svg">
<path d="M18.4349 36.8436C19.7849 36.6292 20.8466 35.7327 21.2438 34.4671C21.5532 33.4897 21.4056 32.4175 20.8395 31.5421C20.6989 31.3241 20.1364 30.7405 18.006 28.6101L15.3481 25.9452L26.911 25.9347L38.4774 25.9276L38.7692 25.8468C40.2177 25.46 41.2161 24.3104 41.3778 22.8585C41.5536 21.2659 40.5903 19.7718 39.0505 19.2444C38.4669 19.044 39.1032 19.0546 26.7352 19.0546L15.3446 19.0546L18.0024 16.3933C19.6548 14.7374 20.7165 13.6475 20.8009 13.5175C21.736 12.1147 21.5673 10.3147 20.3895 9.14052C19.7356 8.4831 18.9235 8.14911 17.9813 8.1456C17.3872 8.14208 16.9442 8.24403 16.4169 8.5077C15.8263 8.80653 16.1849 8.45497 9.30127 15.3808L4.23525 20.4784L4.05244 20.8124C3.36337 22.0921 3.49345 23.5792 4.39697 24.6936C4.50947 24.8308 7.11103 27.4534 10.1837 30.519C14.9966 35.3249 15.8087 36.1229 16.0688 36.2952C16.6208 36.6538 17.1763 36.8331 17.8407 36.8577C18.0517 36.8683 18.3224 36.8612 18.4349 36.8436Z" fill="#1E1C4A"/>
</svg>
