<svg width="36" height="36" viewBox="0 0 36 36" fill="none" xmlns="http://www.w3.org/2000/svg">
<path d="M17.7712 12.432C18.748 12.432 19.5472 11.6328 19.5472 10.656L19.5472 5.328C19.5472 4.3512 20.3464 3.552 21.3232 3.552L30.2032 3.552C31.18 3.552 31.9792 4.3512 31.9792 5.328L31.9792 30.192C31.9792 31.1688 31.18 31.968 30.2032 31.968L21.3232 31.968C20.3464 31.968 19.5472 31.1688 19.5472 30.192V24.864C19.5472 23.8872 18.748 23.088 17.7712 23.088C16.7944 23.088 15.9952 23.8872 15.9952 24.864V30.192C15.9952 33.1224 18.3928 35.52 21.3232 35.52H30.2032C33.1336 35.52 35.5312 33.1224 35.5312 30.192L35.5313 5.328C35.5313 2.3976 33.1336 0 30.2032 0H21.3232C18.3928 0 15.9952 2.3976 15.9952 5.328V10.656C15.9952 11.6328 16.7944 12.432 17.7712 12.432Z" fill="white"/>
<path d="M0.366932 16.6948C0.344732 16.717 0.322527 16.7392 0.300327 16.7614C0.300327 16.7614 0.300327 16.7614 0.300327 16.7836C0.278128 16.828 0.25593 16.8724 0.23373 16.9168C0.211531 16.9834 0.167131 17.0278 0.144932 17.0944C0.122732 17.161 0.100527 17.2054 0.0783272 17.272C0.0561275 17.3164 0.0339317 17.3608 0.0339317 17.4274C-0.0104675 17.6494 -0.0104675 17.8936 0.0339317 18.1156C0.0339317 18.16 0.0561275 18.2044 0.0783272 18.271C0.100527 18.3376 0.100531 18.382 0.12273 18.4486C0.14493 18.5152 0.189329 18.5596 0.211529 18.6262C0.233728 18.6706 0.255934 18.715 0.278133 18.7594C0.344732 18.8482 0.411333 18.9592 0.500134 19.0258L7.60413 26.1298C8.29233 26.818 9.42453 26.818 10.1127 26.1298C10.8009 25.4416 10.8009 24.3094 10.1127 23.6212L6.05013 19.5586L26.6517 19.5586C27.6285 19.5586 28.4277 18.7594 28.4277 17.7826C28.4277 16.8058 27.6285 16.0066 26.6517 16.0066L6.07233 16.0066L10.1349 11.944C10.8231 11.2558 10.8231 10.1236 10.1349 9.43543C9.77973 9.08023 9.33573 8.92483 8.86953 8.92483C8.40333 8.92483 7.95933 9.10243 7.60413 9.43543L0.500134 16.5394C0.477934 16.5616 0.433531 16.6282 0.366932 16.6948Z" fill="white"/>
</svg>
