<svg width="36" height="36" viewBox="0 0 36 36" fill="none" xmlns="http://www.w3.org/2000/svg">
<path d="M30.2031 35.4087H21.3232C18.4541 35.4087 16.1064 33.061 16.1064 30.1919V24.8638C16.1066 23.9484 16.8561 23.1987 17.7715 23.1987C18.6868 23.1988 19.4364 23.9484 19.4365 24.8638V30.1919C19.4365 31.23 20.2851 32.0786 21.3232 32.0786H30.2031C31.2412 32.0786 32.0898 31.23 32.0898 30.1919L32.0898 5.32762C32.0896 4.28969 31.2411 3.4409 30.2031 3.4409H21.3232C20.2853 3.4409 19.4367 4.28969 19.4365 5.32762V10.6557C19.4365 11.5712 18.6869 12.3207 17.7715 12.3208C16.856 12.3208 16.1064 11.5712 16.1064 10.6557V5.32762C16.1067 2.4587 18.4543 0.110824 21.3232 0.110821H30.2031C33.0721 0.110821 35.4197 2.45869 35.4199 5.32762L35.4199 30.1919C35.4199 33.061 33.0722 35.4087 30.2031 35.4087Z" fill="#50AEE3" stroke="#D4D4D4" stroke-width="0.222"/>
<path d="M10.0342 26.0513C9.38933 26.6961 8.32747 26.6961 7.68262 26.0513L0.573242 18.9419L0.566406 18.937C0.534185 18.9128 0.502555 18.8777 0.46875 18.8335C0.452112 18.8117 0.435879 18.789 0.418945 18.7651C0.403912 18.7439 0.388062 18.7213 0.37207 18.6997C0.35159 18.6587 0.331009 18.6176 0.310547 18.5766V18.5776C0.295373 18.5375 0.277019 18.5038 0.262695 18.48C0.245434 18.4512 0.235195 18.4335 0.228516 18.4136C0.219853 18.3876 0.214519 18.366 0.208984 18.3384C0.203438 18.3106 0.197108 18.2764 0.183594 18.2358C0.17752 18.2176 0.171218 18.2012 0.166016 18.187C0.160601 18.1722 0.156852 18.1605 0.15332 18.1499C0.146191 18.1285 0.144543 18.1199 0.144531 18.1157V18.105L0.142578 18.0942C0.101053 17.8866 0.101053 17.6563 0.142578 17.4487L0.144531 17.438V17.4272C0.144569 17.389 0.156018 17.3652 0.177734 17.3218L0.180664 17.3149L0.183594 17.3071C0.193535 17.2773 0.203689 17.252 0.214844 17.2241C0.225854 17.1966 0.237795 17.166 0.25 17.1294C0.256661 17.1094 0.266971 17.0917 0.28418 17.063C0.298386 17.0393 0.316903 17.006 0.332031 16.9663H0.333008L0.411133 16.81V16.8081L0.412109 16.8061C0.42313 16.7951 0.434291 16.784 0.445312 16.7729C0.482751 16.7355 0.513877 16.6985 0.537109 16.6694C0.542711 16.6624 0.548021 16.6559 0.552734 16.6499C0.557689 16.6436 0.56254 16.6381 0.566406 16.6333C0.570256 16.6285 0.572794 16.6244 0.575195 16.6216L7.68262 9.51414C8.01744 9.20136 8.43334 9.03572 8.86914 9.03563C9.30938 9.03563 9.7246 9.1821 10.0566 9.51414C10.7013 10.159 10.7014 11.2209 10.0566 11.8657L5.80469 16.1177L26.6514 16.1177C27.5669 16.1177 28.3164 16.8672 28.3164 17.7827C28.3164 18.6982 27.5668 19.4477 26.6514 19.4477L5.78223 19.4477L10.0342 23.6997C10.679 24.3445 10.679 25.4064 10.0342 26.0513Z" fill="#50AEE3" stroke="#D4D4D4" stroke-width="0.222"/>
</svg>
