<svg width="49" height="49" viewBox="0 0 49 49" fill="none" xmlns="http://www.w3.org/2000/svg">
<path d="M6.125 18.3753H42.875M24.5 18.3753V40.8337M12.6583 40.8337H36.3417C38.6285 40.8337 39.7721 40.8337 40.6455 40.3886C41.4138 39.9972 42.0385 39.3724 42.4299 38.6042C42.875 37.7307 42.875 36.5872 42.875 34.3003V14.7003C42.875 12.4135 42.875 11.27 42.4299 10.3965C42.0385 9.62819 41.4138 9.00352 40.6455 8.61205C39.7721 8.16699 38.6285 8.16699 36.3417 8.16699H12.6583C10.3715 8.16699 9.22801 8.16699 8.35454 8.61205C7.5862 9.00352 6.96153 9.62819 6.57006 10.3965C6.125 11.27 6.125 12.4134 6.125 14.7003V34.3003C6.125 36.5872 6.125 37.7307 6.57006 38.6042C6.96153 39.3724 7.5862 39.9972 8.35454 40.3886C9.22801 40.8337 10.3714 40.8337 12.6583 40.8337Z" stroke="white" stroke-width="4.08333" stroke-linecap="round" stroke-linejoin="round"/>
</svg>
