<svg width="22" height="22" viewBox="0 0 22 22" fill="none" xmlns="http://www.w3.org/2000/svg">
<g clip-path="url(#clip0_25_3)">
<path d="M21.6543 5.02441C21.7159 5.03 21.7767 5.04197 21.8359 5.05957L21.9238 5.08984L22.0078 5.12988C22.0625 5.15889 22.1142 5.19319 22.1621 5.23242L22.2314 5.29492L22.2939 5.36328C22.3331 5.41118 22.3675 5.4629 22.3965 5.51758L22.4355 5.60156L22.4668 5.68945C22.4932 5.77831 22.5057 5.87084 22.5049 5.96387C22.5038 6.088 22.4787 6.21103 22.4297 6.3252C22.3807 6.43928 22.3091 6.54261 22.2197 6.62891L22.2188 6.62793L12.4863 16.3613V16.3623C12.0918 16.7555 11.557 16.9756 11 16.9756C10.4432 16.9756 9.90913 16.7553 9.51465 16.3623L9.51367 16.3613L-0.226562 6.62207C-0.313275 6.53522 -0.381809 6.43171 -0.428711 6.31836C-0.463841 6.23336 -0.486151 6.14393 -0.495117 6.05273L-0.5 5.96094L-0.490234 5.82324C-0.469958 5.68714 -0.418912 5.55676 -0.341797 5.44141C-0.239048 5.28777 -0.0935958 5.16743 0.0771484 5.09668L0.208984 5.05371C0.298008 5.0315 0.389788 5.02282 0.481445 5.02734L0.618164 5.04395L0.750977 5.08105C0.837288 5.11201 0.918545 5.15537 0.992188 5.20996L1.09668 5.2998L10.8359 15.0371L10.8711 15.0664C10.909 15.0916 10.9538 15.1054 11 15.1055C11.0617 15.1055 11.1213 15.0806 11.165 15.0371L20.9033 5.2998C20.9883 5.21346 21.0897 5.14456 21.2012 5.09668L21.2881 5.06445C21.3765 5.03651 21.4685 5.02134 21.5615 5.02051L21.6543 5.02441Z" fill="black" stroke="black"/>
</g>
<defs>
<clipPath id="clip0_25_3">
<rect width="22" height="22" fill="white"/>
</clipPath>
</defs>
</svg>
